# Blender 5.0.0
# www.blender.org
g panel_1_Plane.005
v -1.430243 0.000000 1.144194
v 1.430243 0.000000 1.144194
v -1.430243 0.000000 -1.144194
v 1.430243 0.000000 -1.144194
v -1.430243 0.000000 -1.000504
v -1.430243 0.000000 1.000504
v 1.430243 0.000000 1.000504
v 1.430243 0.000000 -1.000504
v -1.430243 0.000000 -0.872899
v -1.430243 0.000000 0.872899
v 1.430243 0.000000 0.872899
v 1.430243 0.000000 -0.872899
v -1.407368 0.100000 0.982204
v -1.417906 0.100000 1.134325
v 1.417906 0.100000 1.134325
v 1.407368 0.100000 -0.982204
v 1.417906 0.100000 -1.134325
v -1.417906 0.100000 -1.134325
v -1.407368 0.100000 -0.982204
v -1.407368 0.100000 0.891198
v 1.407368 0.100000 0.982204
v 1.407368 0.100000 -0.891198
v -1.407368 0.100000 -0.891198
v 1.407368 0.100000 0.891198
v -1.430243 0.100000 0.872899
v -1.417906 0.100000 1.010374
v 1.430243 0.100000 -0.872899
v 1.417906 0.100000 -1.010374
v 1.417906 0.100000 1.010374
v -1.417906 0.100000 -1.010374
v -1.430243 0.100000 -0.872899
v 1.430243 0.100000 0.872899
v -1.407368 0.076214 0.891198
v -1.407368 0.076214 0.982204
v 1.407368 0.076214 -0.891198
v 1.407368 0.076214 -0.982204
v 1.407368 0.076214 0.982204
v -1.407368 0.076214 -0.982204
v -1.407368 0.076214 -0.891198
v 1.407368 0.076214 0.891198
v -1.430243 0.000000 1.029242
v -1.430243 0.000000 1.057980
v -1.430243 0.000000 1.086718
v -1.430243 0.000000 1.115456
v 1.430243 0.000000 1.115456
v 1.430243 0.000000 1.086718
v 1.430243 0.000000 1.057980
v 1.430243 0.000000 1.029242
v -1.417906 0.100000 1.029242
v -1.417906 0.100000 1.057980
v -1.417906 0.100000 1.086718
v -1.417906 0.100000 1.115456
v 1.417906 0.100000 1.115456
v 1.417906 0.100000 1.086718
v 1.417906 0.100000 1.057980
v 1.417906 0.100000 1.029242
v 1.430243 0.000000 -1.029242
v 1.430243 0.000000 -1.057980
v 1.430243 0.000000 -1.086718
v 1.430243 0.000000 -1.115456
v -1.430243 0.000000 -1.115456
v -1.430243 0.000000 -1.086718
v -1.430243 0.000000 -1.057980
v -1.430243 0.000000 -1.029242
v 1.417906 0.100000 -1.029242
v 1.417906 0.100000 -1.057980
v 1.417906 0.100000 -1.086718
v 1.417906 0.100000 -1.115456
v -1.417906 0.100000 -1.115456
v -1.417906 0.100000 -1.086718
v -1.417906 0.100000 -1.057980
v -1.417906 0.100000 -1.029242
v -1.430243 0.100000 1.115456
v -1.430243 0.100000 1.144194
v 1.430243 0.100000 1.144194
v 1.430243 0.100000 -1.115456
v 1.430243 0.100000 -1.144194
v -1.430243 0.100000 -1.144194
v -1.430243 0.100000 -1.029242
v -1.430243 0.100000 -1.000504
v 1.430243 0.100000 1.029242
v 1.430243 0.100000 1.000504
v -1.430243 0.100000 1.000504
v 1.430243 0.100000 -1.000504
v -1.430243 0.100000 1.029242
v -1.430243 0.100000 1.057980
v -1.430243 0.100000 1.086718
v 1.430243 0.100000 1.115456
v 1.430243 0.100000 1.086718
v 1.430243 0.100000 1.057980
v 1.430243 0.100000 -1.029242
v 1.430243 0.100000 -1.057980
v 1.430243 0.100000 -1.086718
v -1.430243 0.100000 -1.115456
v -1.430243 0.100000 -1.086718
v -1.430243 0.100000 -1.057980
v 1.389952 0.090539 1.115456
v -1.389952 0.090539 1.115456
v 1.389952 0.090539 1.086718
v -1.389952 0.090539 1.086718
v 1.389952 0.090539 1.057980
v -1.389952 0.090539 1.057980
v 1.389952 0.090539 1.029242
v -1.389952 0.090539 1.029242
v 1.389952 0.090539 -1.029242
v -1.389952 0.090539 -1.029242
v 1.389952 0.090539 -1.057980
v -1.389952 0.090539 -1.057980
v 1.389952 0.090539 -1.086718
v -1.389952 0.090539 -1.086718
v 1.389952 0.090539 -1.115456
v -1.389952 0.090539 -1.115456
v -1.389952 0.090539 1.134325
v 1.389952 0.090539 1.134325
v 1.389952 0.090539 -1.134325
v -1.389952 0.090539 -1.134325
v -1.389952 0.090539 -1.010374
v 1.389952 0.090539 1.010374
v -1.389952 0.090539 1.010374
v 1.389952 0.090539 -1.010374
vn -0.0000 -1.0000 -0.0000
vn -0.3206 0.9472 -0.0000
vn -0.0000 -0.0000 -1.0000
vn 1.0000 -0.0000 -0.0000
vn -0.0000 1.0000 -0.0000
vn -1.0000 -0.0000 -0.0000
vn -0.0000 -0.0000 1.0000
vn 0.3206 0.9472 -0.0000
vt 0.000000 0.987442
vt 0.000000 1.000000
vt 1.000000 1.000000
vt 1.000000 0.987442
vt 0.000000 0.050233
vt 0.000000 0.062791
vt 1.000000 0.062791
vt 1.000000 0.050233
vt 0.000000 0.881447
vt 0.000000 0.937209
vt 1.000000 0.937209
vt 1.000000 0.881447
vt 0.000000 0.118553
vt 1.000000 0.118553
vt 0.995687 0.050233
vt 0.995687 0.058478
vt 0.995687 0.004313
vt 0.995687 0.012558
vt 0.007997 0.070788
vt 0.992003 0.070788
vt 0.007997 0.929212
vt 0.007997 0.889444
vt 0.000000 0.012558
vt 0.000000 0.000000
vt 0.000000 0.949767
vt 1.000000 0.000000
vt 0.007997 0.110556
vt 0.992003 0.929212
vt 0.992003 0.889444
vt 0.992003 0.110556
vt 1.000000 0.012558
vt 1.000000 0.025116
vt 1.000000 0.037675
vt 0.000000 0.037675
vt 0.000000 0.025116
vt 0.995687 0.974883
vt 0.995687 0.987442
vt 0.004313 0.949767
vt 0.004313 0.941522
vt 0.004313 0.025116
vt 0.004313 0.012558
vt 0.995687 0.962325
vt 1.000000 0.949767
vt 1.000000 0.962325
vt 1.000000 0.974883
vt 0.000000 0.974884
vt 0.000000 0.962325
vt 0.995687 0.995687
vt 0.004313 0.995687
vt 0.004313 0.037675
vt 0.995687 0.949767
vt 0.004313 0.004313
vt 0.004313 0.058478
vt 0.995687 0.941522
vt 0.004313 0.050233
vt 0.995687 0.025116
vt 0.995687 0.037675
vt 0.004313 0.987442
vt 0.004313 0.974884
vt 0.004313 0.962325
s 0
g panel_1_steel
f 61/1/1 3/2/1 4/3/1 60/4/1
f 41/5/1 6/6/1 7/7/1 48/8/1
f 9/9/1 5/10/1 8/11/1 12/12/1
f 6/6/1 10/13/1 11/14/1 7/7/1
f 10/13/1 9/9/1 12/12/1 11/14/1
f 56/15/2 29/16/2 118/16/2 103/15/2
f 15/17/2 53/18/2 97/18/2 114/17/2
f 13/19/3 21/20/3 37/20/3 34/19/3
f 19/21/4 23/22/4 39/22/4 38/21/4
f 25/13/5 32/14/5 27/12/5 31/9/5
f 4/3/3 3/2/3 78/2/3 77/3/3
f 5/10/6 9/9/6 31/9/6 80/10/6
f 44/23/6 1/24/6 74/24/6 73/23/6
f 12/12/4 8/11/4 84/11/4 27/12/4
f 64/25/6 5/10/6 80/10/6 79/25/6
f 9/9/6 10/13/6 25/13/6 31/9/6
f 1/24/7 2/26/7 75/26/7 74/24/7
f 10/13/6 6/6/6 83/6/6 25/13/6
f 7/7/4 11/14/4 32/14/4 82/7/4
f 60/4/4 4/3/4 77/3/4 76/4/4
f 48/8/4 7/7/4 82/7/4 81/8/4
f 11/14/4 12/12/4 27/12/4 32/14/4
f 13/19/5 20/27/5 25/13/5 83/6/5
f 16/28/5 22/29/5 27/12/5 84/11/5
f 21/20/5 13/19/5 83/6/5 82/7/5
f 19/21/5 16/28/5 84/11/5 80/10/5
f 23/22/5 19/21/5 80/10/5 31/9/5
f 24/30/5 21/20/5 82/7/5 32/14/5
f 20/27/5 24/30/5 32/14/5 25/13/5
f 22/29/5 23/22/5 31/9/5 27/12/5
g panel_1_emission_white
f 39/22/5 35/29/5 36/28/5 38/21/5
f 34/19/5 37/20/5 40/30/5 33/27/5
g panel_1_steel
f 20/27/4 13/19/4 34/19/4 33/27/4
f 23/22/3 22/29/3 35/29/3 39/22/3
f 21/20/6 24/30/6 40/30/6 37/20/6
f 16/28/7 19/21/7 38/21/7 36/28/7
f 22/29/6 16/28/6 36/28/6 35/29/6
f 24/30/7 20/27/7 33/27/7 40/30/7
f 2/26/4 45/31/4 88/31/4 75/26/4
f 45/31/4 46/32/4 89/32/4 88/31/4
f 46/32/4 47/33/4 90/33/4 89/32/4
f 47/33/4 48/8/4 81/8/4 90/33/4
f 6/6/6 41/5/6 85/5/6 83/6/6
f 41/5/6 42/34/6 86/34/6 85/5/6
f 42/34/6 43/35/6 87/35/6 86/34/6
f 43/35/6 44/23/6 73/23/6 87/35/6
f 67/36/2 68/37/2 111/37/2 109/36/2
f 72/38/8 30/39/8 117/39/8 106/38/8
f 51/40/8 52/41/8 98/41/8 100/40/8
f 66/42/2 67/36/2 109/36/2 107/42/2
f 1/24/1 44/23/1 45/31/1 2/26/1
f 44/23/1 43/35/1 46/32/1 45/31/1
f 43/35/1 42/34/1 47/33/1 46/32/1
f 42/34/1 41/5/1 48/8/1 47/33/1
f 8/11/4 57/43/4 91/43/4 84/11/4
f 57/43/4 58/44/4 92/44/4 91/43/4
f 58/44/4 59/45/4 93/45/4 92/44/4
f 59/45/4 60/4/4 76/4/4 93/45/4
f 3/2/6 61/1/6 94/1/6 78/2/6
f 61/1/6 62/46/6 95/46/6 94/1/6
f 62/46/6 63/47/6 96/47/6 95/46/6
f 63/47/6 64/25/6 79/25/6 96/47/6
f 17/48/7 18/49/7 116/49/7 115/48/7
f 50/50/8 51/40/8 100/40/8 102/50/8
f 65/51/2 66/42/2 107/42/2 105/51/2
f 68/37/2 17/48/2 115/48/2 111/37/2
f 5/10/1 64/25/1 57/43/1 8/11/1
f 64/25/1 63/47/1 58/44/1 57/43/1
f 63/47/1 62/46/1 59/45/1 58/44/1
f 62/46/1 61/1/1 60/4/1 59/45/1
f 14/52/5 52/41/5 73/23/5 74/24/5
f 15/17/5 14/52/5 74/24/5 75/26/5
f 17/48/5 68/37/5 76/4/5 77/3/5
f 18/49/5 17/48/5 77/3/5 78/2/5
f 30/39/5 72/38/5 79/25/5 80/10/5
f 29/16/5 56/15/5 81/8/5 82/7/5
f 26/53/5 29/16/5 82/7/5 83/6/5
f 28/54/5 30/39/5 80/10/5 84/11/5
f 49/55/5 26/53/5 83/6/5 85/5/5
f 50/50/5 49/55/5 85/5/5 86/34/5
f 51/40/5 50/50/5 86/34/5 87/35/5
f 52/41/5 51/40/5 87/35/5 73/23/5
f 53/18/5 15/17/5 75/26/5 88/31/5
f 54/56/5 53/18/5 88/31/5 89/32/5
f 55/57/5 54/56/5 89/32/5 90/33/5
f 56/15/5 55/57/5 90/33/5 81/8/5
f 65/51/5 28/54/5 84/11/5 91/43/5
f 66/42/5 65/51/5 91/43/5 92/44/5
f 67/36/5 66/42/5 92/44/5 93/45/5
f 68/37/5 67/36/5 93/45/5 76/4/5
f 69/58/5 18/49/5 78/2/5 94/1/5
f 70/59/5 69/58/5 94/1/5 95/46/5
f 71/60/5 70/59/5 95/46/5 96/47/5
f 72/38/5 71/60/5 96/47/5 79/25/5
f 112/58/5 111/37/5 115/48/5 116/49/5
f 104/55/5 103/15/5 118/16/5 119/53/5
f 113/52/5 114/17/5 97/18/5 98/41/5
f 98/41/5 97/18/5 99/56/5 100/40/5
f 100/40/5 99/56/5 101/57/5 102/50/5
f 102/50/5 101/57/5 103/15/5 104/55/5
f 117/39/5 120/54/5 105/51/5 106/38/5
f 106/38/5 105/51/5 107/42/5 108/60/5
f 108/60/5 107/42/5 109/36/5 110/59/5
f 110/59/5 109/36/5 111/37/5 112/58/5
f 18/49/8 69/58/8 112/58/8 116/49/8
f 53/18/2 54/56/2 99/56/2 97/18/2
f 29/16/7 26/53/7 119/53/7 118/16/7
f 69/58/8 70/59/8 110/59/8 112/58/8
f 54/56/2 55/57/2 101/57/2 99/56/2
f 30/39/3 28/54/3 120/54/3 117/39/3
f 70/59/8 71/60/8 108/60/8 110/59/8
f 52/41/8 14/52/8 113/52/8 98/41/8
f 55/57/2 56/15/2 103/15/2 101/57/2
f 26/53/8 49/55/8 104/55/8 119/53/8
f 71/60/8 72/38/8 106/38/8 108/60/8
f 14/52/3 15/17/3 114/17/3 113/52/3
f 28/54/2 65/51/2 105/51/2 120/54/2
f 49/55/8 50/50/8 102/50/8 104/55/8
